<svg width="25" height="24" viewBox="0 0 25 24" fill="none" xmlns="http://www.w3.org/2000/svg">
<path d="M12.3256 11.62C12.2956 11.62 12.2756 11.62 12.2456 11.62C12.1956 11.61 12.1256 11.61 12.0656 11.62C9.16559 11.53 6.97559 9.25 6.97559 6.44C6.97559 3.58 9.30559 1.25 12.1656 1.25C15.0256 1.25 17.3556 3.58 17.3556 6.44C17.3456 9.25 15.1456 11.53 12.3556 11.62C12.3456 11.62 12.3356 11.62 12.3256 11.62ZM12.1656 2.75C10.1356 2.75 8.47559 4.41 8.47559 6.44C8.47559 8.44 10.0356 10.05 12.0256 10.12C12.0756 10.11 12.2156 10.11 12.3456 10.12C14.3056 10.03 15.8456 8.42 15.8556 6.44C15.8556 4.41 14.1956 2.75 12.1656 2.75Z" fill="#FFFFFF"/>
<path d="M12.3356 22.55C10.3756 22.55 8.40563 22.05 6.91563 21.05C5.52563 20.13 4.76562 18.87 4.76562 17.5C4.76562 16.13 5.52563 14.86 6.91563 13.93C9.91563 11.94 14.7756 11.94 17.7556 13.93C19.1356 14.85 19.9056 16.11 19.9056 17.48C19.9056 18.85 19.1456 20.12 17.7556 21.05C16.2556 22.05 14.2956 22.55 12.3356 22.55ZM7.74563 15.19C6.78562 15.83 6.26562 16.65 6.26562 17.51C6.26562 18.36 6.79562 19.18 7.74563 19.81C10.2356 21.48 14.4356 21.48 16.9256 19.81C17.8856 19.17 18.4056 18.35 18.4056 17.49C18.4056 16.64 17.8756 15.82 16.9256 15.19C14.4356 13.53 10.2356 13.53 7.74563 15.19Z" fill="#FFFFFF"/>
</svg>
